<svg t="1649403598385" class="icon" viewBox="0 0 1024 1024" version="1.1"
    xmlns="http://www.w3.org/2000/svg" p-id="4715" width="48" height="48">
    <path d="M951.242105 746.442105h-18.863158c-2.694737-5.389474-2.694737-8.084211-5.389473-13.473684l13.473684-16.168421c8.084211-8.084211 10.778947-16.168421 10.778947-26.947368s-5.389474-21.557895-10.778947-26.947369l-10.778947-10.778947c-16.168421-16.168421-40.421053-16.168421-56.589474 0l-13.473684 13.473684-16.168421-8.084211v-18.863157c0-21.557895-18.863158-40.421053-40.421053-40.421053h-16.168421c-21.557895 0-40.421053 18.863158-40.421053 40.421053v18.863157c-5.389474 2.694737-8.084211 2.694737-13.473684 5.389474l-13.473684-13.473684c-16.168421-16.168421-40.421053-16.168421-56.589474 0l-10.778947 10.778947c-16.168421 16.168421-16.168421 40.421053 0 56.589474l10.778947 10.778947-8.08421 16.168421h-18.863158c-21.557895 0-40.421053 18.863158-40.421053 40.421053v16.168421c0 21.557895 18.863158 40.421053 40.421053 40.421053h18.863158l8.08421 16.168421-10.778947 10.778947c-8.084211 8.084211-10.778947 16.168421-10.778948 26.947369s5.389474 21.557895 10.778948 26.947368l10.778947 10.778947c8.084211 8.084211 16.168421 10.778947 26.947369 10.778948s21.557895-5.389474 26.947368-10.778948l13.473684-13.473684c5.389474 2.694737 8.084211 2.694737 13.473684 5.389474v18.863158c0 21.557895 18.863158 40.421053 40.421053 40.421052h16.168421c21.557895 0 40.421053-18.863158 40.421053-40.421052v-18.863158l16.168421-8.084211 13.473684 13.473685c8.084211 8.084211 16.168421 10.778947 26.947368 10.778947s21.557895-5.389474 26.947369-10.778947l10.778947-10.778948c8.084211-8.084211 10.778947-16.168421 10.778948-26.947368s-5.389474-21.557895-10.778948-26.947369l-16.168421-16.168421c2.694737-5.389474 2.694737-8.084211 5.389474-13.473684h18.863158c21.557895 0 40.421053-18.863158 40.421052-40.421053v-16.168421c5.389474-13.473684-10.778947-32.336842-32.336842-32.336842z m0 56.589474h-32.336842-5.389474-2.694736s-2.694737 0-2.694737 2.694737l-2.694737 2.694737-2.694737 2.694736s0 2.694737-2.694737 2.694737v2.694737c-2.694737 10.778947-5.389474 21.557895-13.473684 29.642105v13.473685s0 2.694737 2.694737 2.694736c0 0 0 2.694737 2.694737 2.694737l24.252631 26.947369-13.473684 10.778947-24.252631-24.252631h-2.694737l-2.694737-2.694737h-2.694737-2.694737-2.694737-2.694737s-2.694737 0-2.694736 2.694737h-2.694737c-10.778947 5.389474-21.557895 10.778947-32.336842 13.473684h-2.694737s-2.694737 0-2.694737 2.694737c0 0-2.694737 0-2.694737 2.694736l-2.694737 2.694737-2.694737 2.694737V910.821053l-2.694736 35.031579-18.863158-2.694737v-26.947369-2.694737-2.694736-2.694737s0-2.694737-2.694737-2.694737l-2.694737-2.694737-2.694737-2.694737s-2.694737 0-2.694737-2.694737h-2.694736c-10.778947-2.694737-21.557895-5.389474-29.642106-13.473684h-2.694737-2.694736-2.694737-2.694737-2.694737s-2.694737 0-2.694737 2.694737c0 0-2.694737 0-2.694737 2.694737l-24.252631 21.557895-10.778948-13.473685 21.557895-21.557894v-2.694737l2.694737-2.694737s0-2.694737 2.694737-2.694737v-2.694737-2.694737-2.694736s0-2.694737-2.694737-2.694737v-2.694737c-5.389474-10.778947-10.778947-21.557895-13.473684-32.336842-2.694737-8.084211-10.778947-13.473684-18.863158-13.473684h-2.694737l-32.336842-2.694737 2.694737-18.863158h29.642105c8.084211 0 16.168421-5.389474 18.863158-13.473684 2.694737-10.778947 8.084211-24.252632 13.473684-32.336842v-2.694737s0-2.694737 2.694737-2.694737v-2.694737-2.694737-2.694737s0-2.694737-2.694737-2.694736c0 0 0-2.694737-2.694737-2.694737v-2.694737l-21.557894-21.557895v-2.694737l13.473684-10.778947 21.557895 21.557895s2.694737 0 2.694736 2.694736l2.694737 2.694737h16.168421c10.778947-5.389474 18.863158-10.778947 29.642106-13.473684 8.084211-2.694737 13.473684-10.778947 13.473684-18.863158v-2.694737l2.694737-32.336842 18.863157 2.694737V679.073684c0 8.084211 5.389474 16.168421 13.473685 18.863158 10.778947 2.694737 24.252632 8.084211 32.336842 13.473684h10.778947c2.694737 0 5.389474 0 8.084211-2.694737 0 0 2.694737 0 2.694737-2.694736 0 0 2.694737 0 2.694736-2.694737l26.947369-24.252632 10.778947 10.778948 13.473684-13.473685-13.473684 16.168421-29.642105 24.252632-2.694737 2.694737s0 2.694737-2.694737 2.694737v10.778947c5.389474 10.778947 10.778947 18.863158 13.473684 29.642105v5.389474l2.694737 2.694737s0 2.694737 2.694737 2.694737l2.694737 2.694737h2.694737c2.694737 0 5.389474 2.694737 8.08421 2.694736l35.031579 2.694737v21.557895z" fill="#8aff80" p-id="4716"></path>
    <path d="M794.947368 711.410526c-45.810526 0-83.536842 37.726316-83.536842 83.536842s37.726316 83.536842 83.536842 83.536843 83.536842-37.726316 83.536843-83.536843-37.726316-83.536842-83.536843-83.536842z m0 129.347369c-24.252632 0-45.810526-21.557895-45.810526-45.810527s21.557895-45.810526 45.810526-45.810526 45.810526 21.557895 45.810527 45.810526-21.557895 45.810526-45.810527 45.810527zM619.789474 633.263158c10.778947-2.694737 16.168421-10.778947 16.168421-21.557895v-24.252631c0-2.694737 2.694737-8.084211 5.389473-16.168421l5.389474-10.778948c8.084211-13.473684 21.557895-40.421053 26.947369-59.28421 0-2.694737 5.389474-8.084211 8.08421-10.778948 10.778947-8.084211 24.252632-18.863158 40.421053-40.421052 32.336842-43.115789 10.778947-80.842105-2.694737-105.094737-2.694737-2.694737-2.694737-5.389474-2.694737-8.084211 8.084211-37.726316 21.557895-80.842105 16.168421-140.126316-2.694737-64.673684-64.673684-164.378947-215.578947-164.378947-140.126316 0-210.189474 83.536842-215.578948 164.378947-2.694737 56.589474 8.084211 102.4 16.168421 134.736843 0 2.694737-2.694737 5.389474-2.694736 8.08421-13.473684 26.947368-29.642105 61.978947-2.694737 105.094737 13.473684 24.252632 29.642105 35.031579 40.421052 43.115789 2.694737 5.389474 8.084211 10.778947 8.084211 10.778948 5.389474 18.863158 13.473684 37.726316 21.557895 53.894737 2.694737 5.389474 5.389474 8.084211 5.389473 10.778947 0 0 2.694737 2.694737 2.694737 8.084211 2.694737 8.084211 5.389474 13.473684 5.389474 16.168421 0 13.473684 0 29.642105-5.389474 40.421052-2.694737 2.694737-53.894737 70.063158-172.463158 97.010527-97.010526 21.557895-180.547368 43.115789-180.547368 164.378947 0 16.168421 13.473684 35.031579 35.031579 35.031579H538.947368c10.778947 0 18.863158-8.084211 18.863158-18.863158s-8.084211-18.863158-18.863158-18.863158H72.757895c0-86.231579 48.505263-102.4 150.905263-126.652632 132.042105-29.642105 191.326316-107.789474 194.021053-113.178947 13.473684-18.863158 13.473684-43.115789 13.473684-61.978947 0-10.778947-2.694737-18.863158-8.084211-32.336842 0 0-2.694737-2.694737-2.694737-5.389474s-2.694737-8.084211-8.08421-13.473684c-5.389474-10.778947-16.168421-29.642105-18.863158-43.11579-2.694737-8.084211-10.778947-21.557895-18.863158-29.642105l-2.694737-2.694737c-8.084211-5.389474-21.557895-13.473684-32.336842-32.336842-16.168421-24.252632-8.084211-40.421053 5.389474-67.368421 2.694737-5.389474 5.389474-8.084211 5.389473-13.473684 2.694737-8.084211 2.694737-18.863158 0-18.863158-8.084211-32.336842-18.863158-72.757895-16.168421-126.652632 2.694737-43.115789 43.115789-129.347368 177.852632-129.347368 123.957895 0 175.157895 75.452632 177.852632 129.347368 2.694737 51.2-8.084211 94.315789-16.168421 129.347369 0 2.694737-2.694737 10.778947 2.694736 18.863158 2.694737 5.389474 5.389474 8.084211 8.084211 13.473684 13.473684 24.252632 21.557895 40.421053 5.389474 61.978947-13.473684 18.863158-24.252632 26.947368-32.336843 32.336842l-2.694736 2.694737c-8.084211 8.084211-16.168421 21.557895-18.863158 29.642105-2.694737 16.168421-16.168421 40.421053-21.557895 51.2l-5.389474 13.473685c-2.694737 8.084211-8.084211 21.557895-8.08421 32.336842 0 10.778947 0 21.557895 2.694737 29.642105-5.389474 13.473684 5.389474 18.863158 16.168421 18.863158z" fill="#8aff80" p-id="4717"></path>
</svg>